<svg xmlns="http://www.w3.org/2000/svg" width="20" height="17.778" viewBox="0 0 20 17.778">
  <path id="Add_doc" data-name="Add doc" d="M0,2.222A2.224,2.224,0,0,1,2.222,0H7.778V4.444A1.11,1.11,0,0,0,8.889,5.556h4.444V6.9a6.115,6.115,0,0,0-1.885,10.858,2.167,2.167,0,0,1-.337.024H2.222A2.224,2.224,0,0,1,0,15.556ZM13.333,4.444H8.889V0ZM15,17.778a5,5,0,1,1,5-5A5,5,0,0,1,15,17.778Zm.556-7.222a.556.556,0,1,0-1.111,0v1.667H12.778a.556.556,0,1,0,0,1.111h1.667V15a.556.556,0,1,0,1.111,0V13.333h1.667a.556.556,0,1,0,0-1.111H15.556Z" fill="#fff"/>
</svg>
