<svg xmlns="http://www.w3.org/2000/svg" xmlns:xlink="http://www.w3.org/1999/xlink" width="47" height="46" viewBox="0 0 47 46">
  <defs>
    <filter id="box-solid" x="0" y="0" width="47" height="46" filterUnits="userSpaceOnUse">
      <feOffset dx="-4" dy="2" input="SourceAlpha"/>
      <feGaussianBlur stdDeviation="1" result="blur"/>
      <feFlood flood-opacity="0.161"/>
      <feComposite operator="in" in2="blur"/>
      <feComposite in="SourceGraphic"/>
    </filter>
  </defs>
  <g transform="matrix(1, 0, 0, 1, 0, 0)" filter="url(#box-solid)">
    <path id="box-solid-2" data-name="box-solid" d="M4.527,34.366,0,43.429H18.571V32H8.366A4.307,4.307,0,0,0,4.527,34.366Zm16.9,9.063H40l-4.527-9.063A4.307,4.307,0,0,0,31.634,32H21.429ZM40,46.286H0v20A5.72,5.72,0,0,0,5.714,72H34.286A5.72,5.72,0,0,0,40,66.286Z" transform="translate(7 -31)" fill="#01aae9"/>
  </g>
</svg>
