<svg xmlns="http://www.w3.org/2000/svg" width="30" height="40" viewBox="0 0 30 40">
  <path id="file-image-solid" d="M5,0A5,5,0,0,0,0,5V35a5,5,0,0,0,5,5H25a5,5,0,0,0,5-5V12.5H20A2.5,2.5,0,0,1,17.5,10V0ZM20,0V10H30ZM5,20a2.5,2.5,0,1,1,2.5,2.5A2.5,2.5,0,0,1,5,20Zm11.875,2.5a1.256,1.256,0,0,1,1.031.539l6.875,10A1.252,1.252,0,0,1,23.75,35H6.25a1.248,1.248,0,0,1-1.07-1.891l3.75-6.25A1.256,1.256,0,0,1,10,26.25a1.239,1.239,0,0,1,1.07.609l1,1.672,3.773-5.484a1.256,1.256,0,0,1,1.031-.539Z" fill="#6a6a7a"/>
</svg>
