<svg xmlns="http://www.w3.org/2000/svg" width="24" height="24" viewBox="0 0 24 24">
  <path id="up-right-and-down-left-from-center-solid_1_" data-name="up-right-and-down-left-from-center-solid (1)" d="M16.125,0h6.75A1.122,1.122,0,0,1,24,1.125v6.75a1.126,1.126,0,0,1-1.922.8L20.25,6.844l-4.078,4.078a1.12,1.12,0,0,1-1.589,0l-1.5-1.5a1.12,1.12,0,0,1,0-1.589l4.078-4.078L15.328,1.922A1.126,1.126,0,0,1,16.125,0ZM7.875,24H1.125A1.122,1.122,0,0,1,0,22.875v-6.75a1.126,1.126,0,0,1,1.922-.8L3.75,17.156l4.078-4.078a1.12,1.12,0,0,1,1.589,0l1.5,1.5a1.12,1.12,0,0,1,0,1.589L6.839,20.245l1.828,1.828A1.126,1.126,0,0,1,7.87,24Z" fill="#fff"/>
</svg>
