<svg xmlns="http://www.w3.org/2000/svg" width="24" height="24" viewBox="0 0 24 24">
  <path id="down-left-and-up-right-to-center-solid" d="M20.53.28a1.121,1.121,0,0,1,1.589,0l1.5,1.5a1.12,1.12,0,0,1,0,1.589L19.541,7.446,21.37,9.274a1.125,1.125,0,0,1-.8,1.921H13.827A1.122,1.122,0,0,1,12.7,10.071V3.327a1.126,1.126,0,0,1,1.922-.8l1.828,1.828ZM3.327,12.7h6.75A1.122,1.122,0,0,1,11.2,13.825v6.749a1.126,1.126,0,0,1-1.922.8L7.452,19.542,3.374,23.62a1.121,1.121,0,0,1-1.589,0l-1.5-1.5a1.12,1.12,0,0,1,0-1.589l4.078-4.077L2.53,14.621a1.125,1.125,0,0,1,.8-1.922Z" transform="translate(0.05 0.05)" fill="#fff"/>
</svg>
