<svg xmlns="http://www.w3.org/2000/svg" xmlns:xlink="http://www.w3.org/1999/xlink" width="40" height="40" viewBox="0 0 40 40">
  <defs>
    <filter id="Ellipse_470" x="0" y="0" width="40" height="40" filterUnits="userSpaceOnUse">
      <feOffset dy="4" input="SourceAlpha"/>
      <feGaussianBlur stdDeviation="1" result="blur"/>
      <feFlood flood-opacity="0.161" result="color"/>
      <feComposite operator="out" in="SourceGraphic" in2="blur"/>
      <feComposite operator="in" in="color"/>
      <feComposite operator="in" in2="SourceGraphic"/>
    </filter>
    <filter id="compass-solid" x="0" y="0" width="40" height="40" filterUnits="userSpaceOnUse">
      <feOffset dy="4" input="SourceAlpha"/>
      <feGaussianBlur stdDeviation="1" result="blur-2"/>
      <feFlood flood-opacity="0.161" result="color-2"/>
      <feComposite operator="out" in="SourceGraphic" in2="blur-2"/>
      <feComposite operator="in" in="color-2"/>
      <feComposite operator="in" in2="SourceGraphic"/>
    </filter>
  </defs>
  <g id="Navigation" transform="translate(-335 -840)">
    <g data-type="innerShadowGroup">
      <circle id="Ellipse_470-2" data-name="Ellipse 470" cx="20" cy="20" r="20" transform="translate(335 840)" fill="#0c0d13"/>
      <g transform="matrix(1, 0, 0, 1, 335, 840)" filter="url(#Ellipse_470)">
        <circle id="Ellipse_470-3" data-name="Ellipse 470" cx="20" cy="20" r="20" transform="translate(0 0)" fill="#fff"/>
      </g>
    </g>
    <g data-type="innerShadowGroup">
      <path id="compass-solid-2" data-name="compass-solid" d="M20,40A20,20,0,1,0,0,20,20,20,0,0,0,20,40Zm3.961-14.6L12.688,29.734a1.873,1.873,0,0,1-2.422-2.422L14.6,16.039A2.506,2.506,0,0,1,16.039,14.6l11.273-4.336a1.873,1.873,0,0,1,2.422,2.422L25.4,23.961A2.484,2.484,0,0,1,23.961,25.4ZM22.5,20A2.5,2.5,0,1,0,20,22.5,2.5,2.5,0,0,0,22.5,20Z" transform="translate(335 840)" fill="#fafeff"/>
      <g transform="matrix(1, 0, 0, 1, 335, 840)" filter="url(#compass-solid)">
        <path id="compass-solid-3" data-name="compass-solid" d="M20,40A20,20,0,1,0,0,20,20,20,0,0,0,20,40Zm3.961-14.6L12.688,29.734a1.873,1.873,0,0,1-2.422-2.422L14.6,16.039A2.506,2.506,0,0,1,16.039,14.6l11.273-4.336a1.873,1.873,0,0,1,2.422,2.422L25.4,23.961A2.484,2.484,0,0,1,23.961,25.4ZM22.5,20A2.5,2.5,0,1,0,20,22.5,2.5,2.5,0,0,0,22.5,20Z" fill="#fff"/>
      </g>
    </g>
  </g>
</svg>
