<svg xmlns="http://www.w3.org/2000/svg" xmlns:xlink="http://www.w3.org/1999/xlink" width="57" height="46" viewBox="0 0 57 46">
  <defs>
    <filter id="truck-fast-solid" x="0" y="0" width="57" height="46" filterUnits="userSpaceOnUse">
      <feOffset dx="-4" dy="2" input="SourceAlpha"/>
      <feGaussianBlur stdDeviation="1" result="blur"/>
      <feFlood flood-opacity="0.161"/>
      <feComposite operator="in" in2="blur"/>
      <feComposite in="SourceGraphic"/>
    </filter>
  </defs>
  <g transform="matrix(1, 0, 0, 1, 0, 0)" filter="url(#truck-fast-solid)">
    <path id="truck-fast-solid-2" data-name="truck-fast-solid" d="M8.75,0A3.751,3.751,0,0,0,5,3.75V7.5H1.25a1.25,1.25,0,0,0,0,2.5h20a1.25,1.25,0,0,1,0,2.5H3.75a1.25,1.25,0,0,0,0,2.5h15a1.25,1.25,0,0,1,0,2.5H1.25a1.25,1.25,0,0,0,0,2.5h15a1.25,1.25,0,0,1,0,2.5H5v10a7.5,7.5,0,0,0,15,0H30a7.5,7.5,0,0,0,15,0h2.5a2.5,2.5,0,0,0,0-5V18.539A5,5,0,0,0,46.039,15L40,8.961A5,5,0,0,0,36.461,7.5H32.5V3.75A3.751,3.751,0,0,0,28.75,0ZM42.5,18.539V20h-10V12.5h3.961ZM12.5,28.75A3.75,3.75,0,1,1,8.75,32.5,3.75,3.75,0,0,1,12.5,28.75ZM33.75,32.5a3.75,3.75,0,1,1,3.75,3.75A3.75,3.75,0,0,1,33.75,32.5Z" transform="translate(7 1)" fill="#01aae9"/>
  </g>
</svg>
