<svg xmlns="http://www.w3.org/2000/svg" xmlns:xlink="http://www.w3.org/1999/xlink" width="48" height="48" viewBox="0 0 48 48">
  <defs>
    <filter id="Settings" x="1.669" y="6" width="39" height="40" filterUnits="userSpaceOnUse">
      <feOffset dx="-4" dy="2" input="SourceAlpha"/>
      <feGaussianBlur stdDeviation="1" result="blur"/>
      <feFlood flood-opacity="0.161"/>
      <feComposite operator="in" in2="blur"/>
      <feComposite in="SourceGraphic"/>
    </filter>
  </defs>
  <g id="Settings-2" data-name="Settings" transform="translate(-48 -472)">
    <rect id="Rectangle_2093" data-name="Rectangle 2093" width="48" height="48" transform="translate(48 472)" fill="#0082fb" opacity="0"/>
    <g transform="matrix(1, 0, 0, 1, 48, 472)" filter="url(#Settings)">
      <path id="Settings-3" data-name="Settings" d="M32.827,11.063a1.509,1.509,0,0,1-.418,1.634l-2.871,2.616a12.681,12.681,0,0,1,0,3.373L32.409,21.3a1.509,1.509,0,0,1,.418,1.634,16.877,16.877,0,0,1-1.041,2.278l-.312.538a17.5,17.5,0,0,1-1.466,2.079,1.515,1.515,0,0,1-1.625.451L24.691,27.1a14.5,14.5,0,0,1-2.918,1.693l-.829,3.792a1.591,1.591,0,0,1-1.207,1.182A17.3,17.3,0,0,1,16.86,34a16.93,16.93,0,0,1-2.758-.232,1.591,1.591,0,0,1-1.207-1.182l-.829-3.792A13.03,13.03,0,0,1,9.148,27.1L5.457,28.282a1.513,1.513,0,0,1-1.625-.451,17.43,17.43,0,0,1-1.466-2.079l-.31-.538a16.582,16.582,0,0,1-1.046-2.278A1.51,1.51,0,0,1,1.43,21.3L4.3,18.687a12.9,12.9,0,0,1,0-3.373L1.43,12.7a1.507,1.507,0,0,1-.421-1.634A16.654,16.654,0,0,1,2.055,8.786l.31-.538A17.2,17.2,0,0,1,3.832,6.172,1.5,1.5,0,0,1,5.457,5.72L9.148,6.9a12.748,12.748,0,0,1,2.918-1.691l.829-3.792A1.505,1.505,0,0,1,14.1.233a17.153,17.153,0,0,1,5.636,0,1.505,1.505,0,0,1,1.207,1.183l.829,3.792A14.153,14.153,0,0,1,24.691,6.9L28.384,5.72a1.507,1.507,0,0,1,1.625.452,17.188,17.188,0,0,1,1.466,2.075l.312.538A16.87,16.87,0,0,1,32.827,11.063ZM16.919,22.313a5.342,5.342,0,1,0-5.3-5.372A5.32,5.32,0,0,0,16.919,22.313Z" transform="translate(7.75 7)" fill="#01aae9"/>
    </g>
  </g>
</svg>
