<svg xmlns="http://www.w3.org/2000/svg" width="24.83" height="33.106" viewBox="0 0 24.83 33.106">
  <path id="Upload_doc" data-name="Upload doc" d="M4.138,0A4.142,4.142,0,0,0,0,4.138v24.83a4.142,4.142,0,0,0,4.138,4.138H20.691a4.142,4.142,0,0,0,4.138-4.138V10.346H16.553a2.067,2.067,0,0,1-2.069-2.069V0ZM16.553,0V8.277H24.83ZM13.967,26.381a1.552,1.552,0,0,1-3.1,0v-6.6l-2,2a1.55,1.55,0,0,1-2.192-2.192l4.656-4.656a1.545,1.545,0,0,1,2.192,0l4.656,4.656a1.55,1.55,0,0,1-2.192,2.192l-2-2v6.6Z" fill="#c2c0c2"/>
</svg>
