<svg xmlns="http://www.w3.org/2000/svg" xmlns:xlink="http://www.w3.org/1999/xlink" width="51" height="48" viewBox="0 0 51 48">
  <defs>
    <filter id="truck-fast-solid" x="0" y="7" width="47" height="38" filterUnits="userSpaceOnUse">
      <feOffset dx="-4" dy="2" input="SourceAlpha"/>
      <feGaussianBlur stdDeviation="1" result="blur"/>
      <feFlood flood-opacity="0.161"/>
      <feComposite operator="in" in2="blur"/>
      <feComposite in="SourceGraphic"/>
    </filter>
  </defs>
  <g id="DVIR" transform="translate(-45 -256)">
    <rect id="Rectangle_2090" data-name="Rectangle 2090" width="48" height="48" transform="translate(48 256)" fill="#0082fb" opacity="0"/>
    <g transform="matrix(1, 0, 0, 1, 45, 256)" filter="url(#truck-fast-solid)">
      <path id="truck-fast-solid-2" data-name="truck-fast-solid" d="M7,0A3,3,0,0,0,4,3V6H1A1,1,0,0,0,1,8H17a1,1,0,0,1,0,2H3a1,1,0,0,0,0,2H15a1,1,0,0,1,0,2H1a1,1,0,0,0,0,2H13a1,1,0,0,1,0,2H4v8a6,6,0,0,0,12,0h8a6,6,0,0,0,12,0h2a2,2,0,0,0,0-4V14.831A4,4,0,0,0,36.831,12L32,7.169A4,4,0,0,0,29.169,6H26V3a3,3,0,0,0-3-3ZM34,14.831V16H26V10h3.169ZM10,23a3,3,0,1,1-3,3A3,3,0,0,1,10,23Zm17,3a3,3,0,1,1,3,3A3,3,0,0,1,27,26Z" transform="translate(7 8)" fill="#01aae9"/>
    </g>
  </g>
</svg>
